<mxfile host="app.diagrams.net" modified="2022-02-16T15:21:55.726Z" agent="5.0 (X11; Linux x86_64) AppleWebKit/537.36 (KHTML, like Gecko) Chrome/100.0.4867.0 Safari/537.36" etag="ci2ZnQUrMbx-1aFGXCtu" version="16.5.6" type="github">
  <diagram id="cwrcdUsxaL_OP09fu3OQ" name="Page-1">
    <mxGraphModel dx="2249" dy="614" grid="1" gridSize="10" guides="1" tooltips="1" connect="1" arrows="1" fold="1" page="1" pageScale="1" pageWidth="827" pageHeight="1169" math="0" shadow="0">
      <root>
        <mxCell id="0" />
        <mxCell id="1" parent="0" />
        <mxCell id="U1FzMNcOjA2hwwPvR-x1-80" value="" style="rounded=0;whiteSpace=wrap;html=1;fontFamily=Comic Sans MS;" vertex="1" parent="1">
          <mxGeometry x="80" y="110" width="640" height="600" as="geometry" />
        </mxCell>
        <mxCell id="U1FzMNcOjA2hwwPvR-x1-93" style="edgeStyle=orthogonalEdgeStyle;rounded=0;orthogonalLoop=1;jettySize=auto;html=1;fontFamily=Comic Sans MS;strokeColor=#000000;" edge="1" parent="1" source="U1FzMNcOjA2hwwPvR-x1-1" target="U1FzMNcOjA2hwwPvR-x1-92">
          <mxGeometry relative="1" as="geometry">
            <Array as="points">
              <mxPoint x="25" y="250" />
              <mxPoint x="190" y="250" />
            </Array>
          </mxGeometry>
        </mxCell>
        <mxCell id="U1FzMNcOjA2hwwPvR-x1-132" style="edgeStyle=orthogonalEdgeStyle;rounded=0;orthogonalLoop=1;jettySize=auto;html=1;entryX=0.047;entryY=0.367;entryDx=0;entryDy=0;entryPerimeter=0;fontFamily=Comic Sans MS;fontSize=12;strokeColor=#000000;" edge="1" parent="1" source="U1FzMNcOjA2hwwPvR-x1-1" target="U1FzMNcOjA2hwwPvR-x1-80">
          <mxGeometry relative="1" as="geometry" />
        </mxCell>
        <mxCell id="U1FzMNcOjA2hwwPvR-x1-146" style="edgeStyle=orthogonalEdgeStyle;rounded=0;orthogonalLoop=1;jettySize=auto;html=1;fontFamily=Comic Sans MS;fontSize=12;strokeColor=#000000;" edge="1" parent="1" source="U1FzMNcOjA2hwwPvR-x1-1" target="U1FzMNcOjA2hwwPvR-x1-139">
          <mxGeometry relative="1" as="geometry">
            <Array as="points">
              <mxPoint x="25" y="380" />
              <mxPoint x="160" y="380" />
            </Array>
          </mxGeometry>
        </mxCell>
        <mxCell id="U1FzMNcOjA2hwwPvR-x1-150" style="edgeStyle=orthogonalEdgeStyle;rounded=0;orthogonalLoop=1;jettySize=auto;html=1;fontFamily=Comic Sans MS;fontSize=12;strokeColor=#000000;" edge="1" parent="1" source="U1FzMNcOjA2hwwPvR-x1-1" target="U1FzMNcOjA2hwwPvR-x1-149">
          <mxGeometry relative="1" as="geometry">
            <Array as="points">
              <mxPoint x="25" y="530" />
              <mxPoint x="170" y="530" />
            </Array>
          </mxGeometry>
        </mxCell>
        <mxCell id="U1FzMNcOjA2hwwPvR-x1-1" value="customers" style="shape=umlActor;verticalLabelPosition=bottom;verticalAlign=top;html=1;" vertex="1" parent="1">
          <mxGeometry x="10" y="300" width="30" height="60" as="geometry" />
        </mxCell>
        <mxCell id="U1FzMNcOjA2hwwPvR-x1-111" style="edgeStyle=orthogonalEdgeStyle;rounded=0;orthogonalLoop=1;jettySize=auto;html=1;fontFamily=Comic Sans MS;fontSize=12;strokeColor=#00FF00;" edge="1" parent="1" source="U1FzMNcOjA2hwwPvR-x1-82" target="U1FzMNcOjA2hwwPvR-x1-110">
          <mxGeometry relative="1" as="geometry">
            <mxPoint x="620" y="170" as="targetPoint" />
            <Array as="points">
              <mxPoint x="690" y="150" />
              <mxPoint x="690" y="245" />
            </Array>
          </mxGeometry>
        </mxCell>
        <mxCell id="U1FzMNcOjA2hwwPvR-x1-122" style="edgeStyle=orthogonalEdgeStyle;rounded=0;orthogonalLoop=1;jettySize=auto;html=1;entryX=0.429;entryY=0.029;entryDx=0;entryDy=0;entryPerimeter=0;fontFamily=Comic Sans MS;fontSize=12;strokeColor=#00FF00;startArrow=none;" edge="1" parent="1" source="U1FzMNcOjA2hwwPvR-x1-89" target="U1FzMNcOjA2hwwPvR-x1-121">
          <mxGeometry relative="1" as="geometry">
            <Array as="points">
              <mxPoint x="430" y="270" />
              <mxPoint x="440" y="270" />
            </Array>
          </mxGeometry>
        </mxCell>
        <mxCell id="U1FzMNcOjA2hwwPvR-x1-157" style="edgeStyle=orthogonalEdgeStyle;rounded=0;orthogonalLoop=1;jettySize=auto;html=1;fontFamily=Comic Sans MS;fontSize=12;strokeColor=#000000;" edge="1" parent="1" source="U1FzMNcOjA2hwwPvR-x1-82" target="U1FzMNcOjA2hwwPvR-x1-156">
          <mxGeometry relative="1" as="geometry">
            <Array as="points">
              <mxPoint x="650" y="160" />
              <mxPoint x="650" y="160" />
            </Array>
          </mxGeometry>
        </mxCell>
        <mxCell id="U1FzMNcOjA2hwwPvR-x1-82" value="travel agencies" style="shape=umlActor;verticalLabelPosition=bottom;verticalAlign=top;html=1;fontFamily=Comic Sans MS;fillColor=#d5e8d4;strokeColor=#82b366;" vertex="1" parent="1">
          <mxGeometry x="750" y="120" width="30" height="60" as="geometry" />
        </mxCell>
        <mxCell id="U1FzMNcOjA2hwwPvR-x1-118" style="edgeStyle=orthogonalEdgeStyle;rounded=0;orthogonalLoop=1;jettySize=auto;html=1;fontFamily=Comic Sans MS;fontSize=12;strokeColor=#FF0000;entryX=0.5;entryY=0;entryDx=0;entryDy=0;" edge="1" parent="1" source="U1FzMNcOjA2hwwPvR-x1-83" target="U1FzMNcOjA2hwwPvR-x1-112">
          <mxGeometry relative="1" as="geometry">
            <mxPoint x="680" y="365" as="targetPoint" />
            <Array as="points">
              <mxPoint x="660" y="270" />
              <mxPoint x="660" y="340" />
              <mxPoint x="650" y="340" />
            </Array>
          </mxGeometry>
        </mxCell>
        <mxCell id="U1FzMNcOjA2hwwPvR-x1-83" value="plane agencies" style="shape=umlActor;verticalLabelPosition=bottom;verticalAlign=top;html=1;fontFamily=Comic Sans MS;fillColor=#f8cecc;strokeColor=#b85450;" vertex="1" parent="1">
          <mxGeometry x="750" y="240" width="30" height="60" as="geometry" />
        </mxCell>
        <mxCell id="U1FzMNcOjA2hwwPvR-x1-105" style="edgeStyle=orthogonalEdgeStyle;rounded=0;orthogonalLoop=1;jettySize=auto;html=1;fontFamily=Comic Sans MS;fontSize=12;strokeColor=#0000FF;entryX=1;entryY=0.5;entryDx=0;entryDy=0;" edge="1" parent="1" source="U1FzMNcOjA2hwwPvR-x1-84" target="U1FzMNcOjA2hwwPvR-x1-103">
          <mxGeometry relative="1" as="geometry">
            <mxPoint x="650" y="400" as="targetPoint" />
            <Array as="points">
              <mxPoint x="400" y="450" />
            </Array>
          </mxGeometry>
        </mxCell>
        <mxCell id="U1FzMNcOjA2hwwPvR-x1-124" style="edgeStyle=orthogonalEdgeStyle;rounded=0;orthogonalLoop=1;jettySize=auto;html=1;fontFamily=Comic Sans MS;fontSize=12;strokeColor=#0000FF;" edge="1" parent="1" source="U1FzMNcOjA2hwwPvR-x1-84" target="U1FzMNcOjA2hwwPvR-x1-123">
          <mxGeometry relative="1" as="geometry">
            <Array as="points">
              <mxPoint x="610" y="450" />
            </Array>
          </mxGeometry>
        </mxCell>
        <mxCell id="U1FzMNcOjA2hwwPvR-x1-84" value="bank" style="shape=umlActor;verticalLabelPosition=bottom;verticalAlign=top;html=1;fontFamily=Comic Sans MS;fillColor=#dae8fc;strokeColor=#6c8ebf;" vertex="1" parent="1">
          <mxGeometry x="750" y="410" width="30" height="60" as="geometry" />
        </mxCell>
        <mxCell id="U1FzMNcOjA2hwwPvR-x1-142" style="edgeStyle=orthogonalEdgeStyle;rounded=0;orthogonalLoop=1;jettySize=auto;html=1;fontFamily=Comic Sans MS;fontSize=12;strokeColor=#000000;" edge="1" parent="1" source="U1FzMNcOjA2hwwPvR-x1-86">
          <mxGeometry relative="1" as="geometry">
            <mxPoint x="484" y="570" as="targetPoint" />
            <Array as="points">
              <mxPoint x="484" y="550" />
            </Array>
          </mxGeometry>
        </mxCell>
        <mxCell id="U1FzMNcOjA2hwwPvR-x1-144" style="edgeStyle=orthogonalEdgeStyle;rounded=0;orthogonalLoop=1;jettySize=auto;html=1;fontFamily=Comic Sans MS;fontSize=12;strokeColor=#000000;" edge="1" parent="1" source="U1FzMNcOjA2hwwPvR-x1-86" target="U1FzMNcOjA2hwwPvR-x1-141">
          <mxGeometry relative="1" as="geometry">
            <Array as="points">
              <mxPoint x="630" y="550" />
            </Array>
          </mxGeometry>
        </mxCell>
        <mxCell id="U1FzMNcOjA2hwwPvR-x1-86" value="airport&lt;br&gt;security" style="shape=umlActor;verticalLabelPosition=bottom;verticalAlign=top;html=1;fontFamily=Comic Sans MS;fillColor=#fff2cc;strokeColor=#d6b656;" vertex="1" parent="1">
          <mxGeometry x="750" y="525" width="30" height="60" as="geometry" />
        </mxCell>
        <mxCell id="U1FzMNcOjA2hwwPvR-x1-88" value="plane" style="shape=umlActor;verticalLabelPosition=bottom;verticalAlign=top;html=1;fontFamily=Comic Sans MS;fillColor=#ffcd28;gradientColor=#ffa500;strokeColor=#d79b00;" vertex="1" parent="1">
          <mxGeometry x="750" y="660" width="30" height="60" as="geometry" />
        </mxCell>
        <mxCell id="U1FzMNcOjA2hwwPvR-x1-94" style="edgeStyle=orthogonalEdgeStyle;rounded=0;orthogonalLoop=1;jettySize=auto;html=1;entryX=0;entryY=0.5;entryDx=0;entryDy=0;fontFamily=Comic Sans MS;strokeColor=#000000;" edge="1" parent="1" source="U1FzMNcOjA2hwwPvR-x1-92" target="U1FzMNcOjA2hwwPvR-x1-89">
          <mxGeometry relative="1" as="geometry" />
        </mxCell>
        <mxCell id="U1FzMNcOjA2hwwPvR-x1-96" value="&amp;lt;&amp;lt;include&amp;gt;&amp;gt;" style="edgeLabel;html=1;align=center;verticalAlign=middle;resizable=0;points=[];fontFamily=Comic Sans MS;fontStyle=3;fontSize=12;" vertex="1" connectable="0" parent="U1FzMNcOjA2hwwPvR-x1-94">
          <mxGeometry x="-0.1" y="-4" relative="1" as="geometry">
            <mxPoint y="-4" as="offset" />
          </mxGeometry>
        </mxCell>
        <mxCell id="U1FzMNcOjA2hwwPvR-x1-100" style="edgeStyle=orthogonalEdgeStyle;rounded=0;orthogonalLoop=1;jettySize=auto;html=1;entryX=0.1;entryY=0.229;entryDx=0;entryDy=0;entryPerimeter=0;fontFamily=Comic Sans MS;fontSize=12;strokeColor=#000000;" edge="1" parent="1" source="U1FzMNcOjA2hwwPvR-x1-92" target="U1FzMNcOjA2hwwPvR-x1-98">
          <mxGeometry relative="1" as="geometry" />
        </mxCell>
        <mxCell id="U1FzMNcOjA2hwwPvR-x1-92" value="make reservation" style="ellipse;whiteSpace=wrap;html=1;fontFamily=Comic Sans MS;" vertex="1" parent="1">
          <mxGeometry x="120" y="130" width="140" height="70" as="geometry" />
        </mxCell>
        <mxCell id="U1FzMNcOjA2hwwPvR-x1-101" style="edgeStyle=orthogonalEdgeStyle;rounded=0;orthogonalLoop=1;jettySize=auto;html=1;fontFamily=Comic Sans MS;fontSize=12;strokeColor=#000000;" edge="1" parent="1" source="U1FzMNcOjA2hwwPvR-x1-98" target="U1FzMNcOjA2hwwPvR-x1-89">
          <mxGeometry relative="1" as="geometry">
            <Array as="points">
              <mxPoint x="390" y="175" />
            </Array>
          </mxGeometry>
        </mxCell>
        <mxCell id="U1FzMNcOjA2hwwPvR-x1-102" value="{by cash}" style="edgeLabel;html=1;align=center;verticalAlign=middle;resizable=0;points=[];fontSize=12;fontFamily=Comic Sans MS;" vertex="1" connectable="0" parent="U1FzMNcOjA2hwwPvR-x1-101">
          <mxGeometry x="-0.0933" y="-3" relative="1" as="geometry">
            <mxPoint as="offset" />
          </mxGeometry>
        </mxCell>
        <mxCell id="U1FzMNcOjA2hwwPvR-x1-107" style="edgeStyle=orthogonalEdgeStyle;rounded=0;orthogonalLoop=1;jettySize=auto;html=1;fontFamily=Comic Sans MS;fontSize=12;strokeColor=#000000;" edge="1" parent="1" source="U1FzMNcOjA2hwwPvR-x1-98" target="U1FzMNcOjA2hwwPvR-x1-103">
          <mxGeometry relative="1" as="geometry">
            <Array as="points">
              <mxPoint x="320" y="340" />
              <mxPoint x="320" y="340" />
            </Array>
          </mxGeometry>
        </mxCell>
        <mxCell id="U1FzMNcOjA2hwwPvR-x1-109" value="{payment by card&lt;b&gt;&lt;i&gt;}&lt;/i&gt;&lt;/b&gt;" style="edgeLabel;html=1;align=center;verticalAlign=middle;resizable=0;points=[];fontSize=12;fontFamily=Comic Sans MS;" vertex="1" connectable="0" parent="U1FzMNcOjA2hwwPvR-x1-107">
          <mxGeometry x="0.1462" y="-1" relative="1" as="geometry">
            <mxPoint x="-9" y="35" as="offset" />
          </mxGeometry>
        </mxCell>
        <mxCell id="U1FzMNcOjA2hwwPvR-x1-98" value="make payment" style="ellipse;whiteSpace=wrap;html=1;fontFamily=Comic Sans MS;fontSize=12;" vertex="1" parent="1">
          <mxGeometry x="250" y="210" width="140" height="70" as="geometry" />
        </mxCell>
        <mxCell id="U1FzMNcOjA2hwwPvR-x1-103" value="verification pin&lt;br&gt;&amp;amp;&amp;amp;&amp;nbsp;&lt;br&gt;payment" style="ellipse;whiteSpace=wrap;html=1;fontFamily=Comic Sans MS;fontSize=12;fillColor=#dae8fc;strokeColor=#6c8ebf;" vertex="1" parent="1">
          <mxGeometry x="260" y="420" width="140" height="70" as="geometry" />
        </mxCell>
        <mxCell id="U1FzMNcOjA2hwwPvR-x1-114" value="&amp;lt;&amp;lt;include&amp;gt;&amp;gt;" style="edgeStyle=orthogonalEdgeStyle;rounded=0;orthogonalLoop=1;jettySize=auto;html=1;fontFamily=Comic Sans MS;fontSize=12;strokeColor=#00FF00;" edge="1" parent="1" source="U1FzMNcOjA2hwwPvR-x1-110" target="U1FzMNcOjA2hwwPvR-x1-112">
          <mxGeometry relative="1" as="geometry">
            <Array as="points">
              <mxPoint x="600" y="325" />
              <mxPoint x="620" y="325" />
            </Array>
          </mxGeometry>
        </mxCell>
        <mxCell id="U1FzMNcOjA2hwwPvR-x1-110" value="available verification&amp;nbsp;" style="ellipse;whiteSpace=wrap;html=1;fontFamily=Comic Sans MS;fontSize=12;fillColor=#d5e8d4;strokeColor=#82b366;" vertex="1" parent="1">
          <mxGeometry x="490" y="210" width="140" height="70" as="geometry" />
        </mxCell>
        <mxCell id="U1FzMNcOjA2hwwPvR-x1-112" value="update available plane" style="ellipse;whiteSpace=wrap;html=1;fontFamily=Comic Sans MS;fontSize=12;fillColor=#f8cecc;strokeColor=#b85450;" vertex="1" parent="1">
          <mxGeometry x="580" y="360" width="140" height="70" as="geometry" />
        </mxCell>
        <mxCell id="U1FzMNcOjA2hwwPvR-x1-121" value="send travel folder" style="ellipse;whiteSpace=wrap;html=1;fontFamily=Comic Sans MS;fontSize=12;fillColor=#d5e8d4;strokeColor=#82b366;" vertex="1" parent="1">
          <mxGeometry x="380" y="280" width="140" height="70" as="geometry" />
        </mxCell>
        <mxCell id="U1FzMNcOjA2hwwPvR-x1-123" value="refund" style="ellipse;whiteSpace=wrap;html=1;fontFamily=Comic Sans MS;fontSize=12;fillColor=#dae8fc;strokeColor=#6c8ebf;" vertex="1" parent="1">
          <mxGeometry x="540" y="470" width="140" height="70" as="geometry" />
        </mxCell>
        <mxCell id="U1FzMNcOjA2hwwPvR-x1-135" value="&amp;lt;&amp;lt;include&amp;gt;&amp;gt;" style="edgeStyle=orthogonalEdgeStyle;rounded=0;orthogonalLoop=1;jettySize=auto;html=1;entryX=0;entryY=0.5;entryDx=0;entryDy=0;fontFamily=Comic Sans MS;fontSize=12;strokeColor=#000000;" edge="1" parent="1" source="U1FzMNcOjA2hwwPvR-x1-125" target="U1FzMNcOjA2hwwPvR-x1-112">
          <mxGeometry relative="1" as="geometry">
            <Array as="points">
              <mxPoint x="550" y="395" />
              <mxPoint x="550" y="395" />
            </Array>
          </mxGeometry>
        </mxCell>
        <mxCell id="U1FzMNcOjA2hwwPvR-x1-137" style="edgeStyle=orthogonalEdgeStyle;rounded=0;orthogonalLoop=1;jettySize=auto;html=1;fontFamily=Comic Sans MS;fontSize=12;strokeColor=#000000;" edge="1" parent="1" source="U1FzMNcOjA2hwwPvR-x1-125" target="U1FzMNcOjA2hwwPvR-x1-123">
          <mxGeometry relative="1" as="geometry">
            <Array as="points">
              <mxPoint x="460" y="505" />
            </Array>
          </mxGeometry>
        </mxCell>
        <mxCell id="U1FzMNcOjA2hwwPvR-x1-138" value="&amp;lt;&amp;lt;include&amp;gt;&amp;gt;" style="edgeLabel;html=1;align=center;verticalAlign=middle;resizable=0;points=[];fontSize=12;fontFamily=Comic Sans MS;" vertex="1" connectable="0" parent="U1FzMNcOjA2hwwPvR-x1-137">
          <mxGeometry x="-0.1071" y="2" relative="1" as="geometry">
            <mxPoint as="offset" />
          </mxGeometry>
        </mxCell>
        <mxCell id="U1FzMNcOjA2hwwPvR-x1-125" value="send refund request" style="ellipse;whiteSpace=wrap;html=1;fontFamily=Comic Sans MS;fontSize=12;fillColor=#d5e8d4;strokeColor=#82b366;" vertex="1" parent="1">
          <mxGeometry x="380" y="360" width="140" height="70" as="geometry" />
        </mxCell>
        <mxCell id="U1FzMNcOjA2hwwPvR-x1-133" style="edgeStyle=orthogonalEdgeStyle;rounded=0;orthogonalLoop=1;jettySize=auto;html=1;entryX=0;entryY=0;entryDx=0;entryDy=0;fontFamily=Comic Sans MS;fontSize=12;strokeColor=#000000;" edge="1" parent="1" source="U1FzMNcOjA2hwwPvR-x1-131" target="U1FzMNcOjA2hwwPvR-x1-125">
          <mxGeometry relative="1" as="geometry">
            <Array as="points">
              <mxPoint x="190" y="370" />
            </Array>
          </mxGeometry>
        </mxCell>
        <mxCell id="U1FzMNcOjA2hwwPvR-x1-134" value="&amp;lt;&amp;lt;include&amp;gt;&amp;gt;" style="edgeLabel;html=1;align=center;verticalAlign=middle;resizable=0;points=[];fontSize=12;fontFamily=Comic Sans MS;" vertex="1" connectable="0" parent="U1FzMNcOjA2hwwPvR-x1-133">
          <mxGeometry x="-0.153" relative="1" as="geometry">
            <mxPoint as="offset" />
          </mxGeometry>
        </mxCell>
        <mxCell id="U1FzMNcOjA2hwwPvR-x1-158" style="edgeStyle=orthogonalEdgeStyle;rounded=0;orthogonalLoop=1;jettySize=auto;html=1;fontFamily=Comic Sans MS;fontSize=12;strokeColor=#000000;" edge="1" parent="1" source="U1FzMNcOjA2hwwPvR-x1-131" target="U1FzMNcOjA2hwwPvR-x1-156">
          <mxGeometry relative="1" as="geometry">
            <Array as="points">
              <mxPoint x="100" y="325" />
              <mxPoint x="100" y="120" />
              <mxPoint x="590" y="120" />
            </Array>
          </mxGeometry>
        </mxCell>
        <mxCell id="U1FzMNcOjA2hwwPvR-x1-159" value="&amp;lt;&amp;lt;include&amp;gt;&amp;gt;" style="edgeLabel;html=1;align=center;verticalAlign=middle;resizable=0;points=[];fontSize=12;fontFamily=Comic Sans MS;" vertex="1" connectable="0" parent="U1FzMNcOjA2hwwPvR-x1-158">
          <mxGeometry x="-0.6531" y="-5" relative="1" as="geometry">
            <mxPoint as="offset" />
          </mxGeometry>
        </mxCell>
        <mxCell id="U1FzMNcOjA2hwwPvR-x1-131" value="cancellation&lt;br&gt;request" style="ellipse;whiteSpace=wrap;html=1;fontFamily=Comic Sans MS;fontSize=12;" vertex="1" parent="1">
          <mxGeometry x="110" y="290" width="140" height="70" as="geometry" />
        </mxCell>
        <mxCell id="U1FzMNcOjA2hwwPvR-x1-147" style="edgeStyle=orthogonalEdgeStyle;rounded=0;orthogonalLoop=1;jettySize=auto;html=1;entryX=0.096;entryY=0.186;entryDx=0;entryDy=0;entryPerimeter=0;fontFamily=Comic Sans MS;fontSize=12;strokeColor=#000000;" edge="1" parent="1" source="U1FzMNcOjA2hwwPvR-x1-139" target="U1FzMNcOjA2hwwPvR-x1-140">
          <mxGeometry relative="1" as="geometry">
            <Array as="points">
              <mxPoint x="220" y="540" />
              <mxPoint x="427" y="540" />
            </Array>
          </mxGeometry>
        </mxCell>
        <mxCell id="U1FzMNcOjA2hwwPvR-x1-148" value="&amp;lt;&amp;lt;include&amp;gt;&amp;gt;" style="edgeLabel;html=1;align=center;verticalAlign=middle;resizable=0;points=[];fontSize=12;fontFamily=Comic Sans MS;" vertex="1" connectable="0" parent="U1FzMNcOjA2hwwPvR-x1-147">
          <mxGeometry x="-0.098" relative="1" as="geometry">
            <mxPoint as="offset" />
          </mxGeometry>
        </mxCell>
        <mxCell id="U1FzMNcOjA2hwwPvR-x1-139" value="register luggage&amp;nbsp;" style="ellipse;whiteSpace=wrap;html=1;fontFamily=Comic Sans MS;fontSize=12;" vertex="1" parent="1">
          <mxGeometry x="100" y="420" width="140" height="70" as="geometry" />
        </mxCell>
        <mxCell id="U1FzMNcOjA2hwwPvR-x1-140" value="verification:&amp;nbsp; identity,&amp;nbsp; files to flight interdiction, luggage&amp;nbsp;" style="ellipse;whiteSpace=wrap;html=1;fontFamily=Comic Sans MS;fontSize=12;fillColor=#fff2cc;strokeColor=#d6b656;" vertex="1" parent="1">
          <mxGeometry x="413.5" y="580" width="140" height="70" as="geometry" />
        </mxCell>
        <mxCell id="U1FzMNcOjA2hwwPvR-x1-141" value="phone police" style="ellipse;whiteSpace=wrap;html=1;fontFamily=Comic Sans MS;fontSize=12;fillColor=#fff2cc;strokeColor=#d6b656;" vertex="1" parent="1">
          <mxGeometry x="580" y="580" width="140" height="70" as="geometry" />
        </mxCell>
        <mxCell id="U1FzMNcOjA2hwwPvR-x1-149" value="up to plane" style="ellipse;whiteSpace=wrap;html=1;fontFamily=Comic Sans MS;fontSize=12;" vertex="1" parent="1">
          <mxGeometry x="100" y="570" width="140" height="70" as="geometry" />
        </mxCell>
        <mxCell id="U1FzMNcOjA2hwwPvR-x1-89" value="travel display" style="ellipse;whiteSpace=wrap;html=1;fontFamily=Comic Sans MS;fillColor=#d5e8d4;strokeColor=#82b366;" vertex="1" parent="1">
          <mxGeometry x="360" y="130" width="140" height="70" as="geometry" />
        </mxCell>
        <mxCell id="U1FzMNcOjA2hwwPvR-x1-153" value="" style="edgeStyle=orthogonalEdgeStyle;rounded=0;orthogonalLoop=1;jettySize=auto;html=1;entryX=0.429;entryY=0.029;entryDx=0;entryDy=0;entryPerimeter=0;fontFamily=Comic Sans MS;fontSize=12;strokeColor=#00FF00;endArrow=none;" edge="1" parent="1" source="U1FzMNcOjA2hwwPvR-x1-82" target="U1FzMNcOjA2hwwPvR-x1-89">
          <mxGeometry relative="1" as="geometry">
            <mxPoint x="750" y="120" as="sourcePoint" />
            <mxPoint x="440.05999999999995" y="282.03" as="targetPoint" />
            <Array as="points">
              <mxPoint x="420" y="120" />
            </Array>
          </mxGeometry>
        </mxCell>
        <mxCell id="U1FzMNcOjA2hwwPvR-x1-156" value="canceled plate&amp;nbsp;" style="ellipse;whiteSpace=wrap;html=1;fontFamily=Comic Sans MS;fontSize=12;fillColor=#d5e8d4;strokeColor=#82b366;" vertex="1" parent="1">
          <mxGeometry x="520" y="130" width="140" height="70" as="geometry" />
        </mxCell>
      </root>
    </mxGraphModel>
  </diagram>
</mxfile>
